<svg id="Capa_1" enable-background="new 0 0 510 510" height="512" viewBox="0 0 510 510" width="512" xmlns="http://www.w3.org/2000/svg"><g><path d="m495 432.08c0 13.24-5.36 25.22-14.03 33.89s-20.65 14.03-33.89 14.03h-193.46v-450h2.76c17.63 0 33.83 9.68 42.19 25.2l190.7 354.16c3.76 6.99 5.73 14.79 5.73 22.72z" fill="#ff9e22"/><path d="m253.62 30v450h-190.7c-26.47 0-47.92-21.45-47.92-47.92 0-3.96.49-7.9 1.46-11.71.96-3.82 2.39-7.51 4.27-11.01l190.7-354.16c8.36-15.52 24.56-25.2 42.19-25.2z" fill="#ffd322"/><path d="m224.64 62.31c5.75-10.68 16.85-17.31 28.98-17.31l9.933-13.723-9.933-16.277c-23.18 0-44.41 12.68-55.4 33.09l-190.7 354.16c-4.92 9.14-7.52 19.45-7.52 29.83 0 34.69 28.23 62.92 62.92 62.92h190.7l9.933-15-9.933-15h-190.7c-18.15 0-32.92-14.77-32.92-32.92 0-5.43 1.36-10.83 3.93-15.61z" fill="#ff4a4a"/><path d="m510 432.08c0 34.69-28.23 62.92-62.92 62.92h-193.46v-30h193.46c18.15 0 32.92-14.77 32.92-32.92 0-5.43-1.36-10.83-3.93-15.61l-190.71-354.16c-5.75-10.68-16.85-17.31-28.98-17.31h-2.76v-15-15h2.76c23.18 0 44.41 12.68 55.4 33.09l190.7 354.16c4.92 9.14 7.52 19.45 7.52 29.83z" fill="#d00050"/><path d="m306.7 383.78c-1.29 3.52-2.92 6.87-4.86 10.01 13.2 9.43 21.14 24.6 21.14 41.21h-30c0-7.9-4.39-15-11.45-18.53l-3.28-1.64c-7.07 3.31-14.94 5.17-23.25 5.17-.46 0-.92-.01-1.38-.02l-11.514-46.576 11.514-63.384c.46-.01.92-.02 1.38-.02 7.78 0 15.19 1.63 21.9 4.56l4.63-2.31c7.06-3.53 11.45-10.63 11.45-18.53h30c0 16.85-8.16 32.22-21.71 41.61 3.58 5.55 6.19 11.77 7.57 18.45h30.04v30z" fill="#d00050"/><path d="m253.62 310.02v109.96c-7.8-.19-15.19-2.02-21.87-5.15l-3.28 1.64c-7.06 3.53-11.45 10.63-11.45 18.53h-30c0-16.61 7.94-31.78 21.14-41.21-1.94-3.14-3.57-6.49-4.86-10.01h-32.18v-30h30.04c1.38-6.68 3.99-12.9 7.57-18.45-13.55-9.39-21.71-24.76-21.71-41.61h30c0 7.9 4.39 15 11.45 18.53l4.63 2.31c6.31-2.76 13.24-4.36 20.52-4.54z" fill="#ff4a4a"/><path d="m296.42 178.43-13.25 101.57h-29.55l-7.939-70 7.939-75h4.66c11.07 0 21.6 4.77 28.9 13.08 7.3 8.32 10.67 19.38 9.24 30.35z" fill="#d00050"/><path d="m253.62 135v145h-26.24l-17.38-99.95c-1.95-11.21 1.13-22.64 8.46-31.35 7.32-8.7 18.05-13.7 29.43-13.7z" fill="#ff4a4a"/></g></svg>