<svg id="Capa_1" enable-background="new 0 0 512 512" height="512" viewBox="0 0 512 512" width="512" xmlns="http://www.w3.org/2000/svg"><g><g><path d="m343.415 512h-268.593c-5.69 0-10.302-4.612-10.302-10.302v-491.396c0-5.69 4.613-10.302 10.302-10.302h362.356c5.69 0 10.302 4.612 10.302 10.302v391.915c0 3.661-1.454 7.172-4.043 9.761z" fill="#ecf4ff"/></g><g><path d="m339.147 512h-264.325c-5.69 0-10.302-4.612-10.302-10.302v-491.396c0-5.69 4.613-10.302 10.302-10.302h362.356c5.69 0 10.302 4.612 10.302 10.302v393.366c0 2.732-1.085 5.353-3.017 7.284l-98.03 98.03c-1.933 1.933-4.553 3.018-7.286 3.018z" fill="#ecf4ff"/></g><g><path d="m447.48 10.302v393.364c0 1.484-.319 2.936-.927 4.265-.505 1.113-1.205 2.143-2.091 3.018l-16.751 16.751v-427.7h9.467c5.687 0 10.302 4.615 10.302 10.302z" fill="#cbe2ff"/></g><g><path d="m446.553 407.931c-.505 1.113-1.205 2.143-2.091 3.018l-16.751 16.751-81.281 81.281c-.886.886-1.906 1.586-3.018 2.091v-92.84c0-5.69 4.612-10.302 10.302-10.302h92.839z" fill="#9dc6fb"/></g><g><g><circle cx="256" cy="74.927" fill="#f1d0a5" r="41.626"/></g><g><path d="m276.704 38.821c3.505 6.099 5.52 13.164 5.52 20.704 0 22.989-18.637 41.626-41.626 41.626-7.54 0-14.605-2.015-20.704-5.52 7.183 12.498 20.656 20.922 36.106 20.922 22.989 0 41.626-18.637 41.626-41.626 0-15.45-8.423-28.923-20.922-36.106z" fill="#f1b986"/></g><g><g><path d="m178.992 158.179v25.08c0 5.69 4.612 10.302 10.302 10.302h133.413c5.69 0 10.302-4.612 10.302-10.302v-25.08c0-22.989-18.637-41.626-41.626-41.626h-70.764c-22.991 0-41.627 18.636-41.627 41.626z" fill="#dd5790"/></g><g><path d="m291.382 116.553h-24.976c22.989 0 41.626 18.637 41.626 41.626v35.382h14.674c5.69 0 10.302-4.612 10.302-10.302v-25.08c0-22.99-18.637-41.626-41.626-41.626z" fill="#da387d"/></g></g></g><g><path d="m339.357 260.163h-166.714c-5.69 0-10.302-4.612-10.302-10.302v-12.697c0-5.69 4.612-10.302 10.302-10.302h166.713c5.69 0 10.302 4.612 10.302 10.302v12.697c.001 5.689-4.612 10.302-10.301 10.302z" fill="#4073c8"/></g><g><g><path d="m297.027 172.747c0-4.268-3.459-7.726-7.726-7.726s-7.726 3.459-7.726 7.726v20.813h15.453v-20.813z" fill="#da387d"/></g><g><path d="m230.426 193.561v-20.813c0-4.268-3.459-7.726-7.726-7.726s-7.726 3.459-7.726 7.726v20.813z" fill="#da387d"/></g></g><g><path d="m414.179 301.19h-239.35c-4.267 0-7.726-3.459-7.726-7.726s3.459-7.726 7.726-7.726h239.35c4.267 0 7.726 3.459 7.726 7.726s-3.459 7.726-7.726 7.726z" fill="#9dc6fb"/></g><g><path d="m141.529 301.19h-43.708c-4.267 0-7.726-3.459-7.726-7.726s3.459-7.726 7.726-7.726h43.708c4.267 0 7.726 3.459 7.726 7.726s-3.459 7.726-7.726 7.726z" fill="#9dc6fb"/></g><g><path d="m141.529 334.491h-43.708c-4.267 0-7.726-3.459-7.726-7.726s3.459-7.726 7.726-7.726h43.708c4.267 0 7.726 3.459 7.726 7.726s-3.459 7.726-7.726 7.726z" fill="#9dc6fb"/></g><g><path d="m414.179 334.491h-239.35c-4.267 0-7.726-3.459-7.726-7.726s3.459-7.726 7.726-7.726h239.35c4.267 0 7.726 3.459 7.726 7.726s-3.459 7.726-7.726 7.726z" fill="#9dc6fb"/></g><g><path d="m141.529 367.792h-43.708c-4.267 0-7.726-3.459-7.726-7.726s3.459-7.726 7.726-7.726h43.708c4.267 0 7.726 3.459 7.726 7.726s-3.459 7.726-7.726 7.726z" fill="#9dc6fb"/></g><g><path d="m414.179 367.792h-239.35c-4.267 0-7.726-3.459-7.726-7.726s3.459-7.726 7.726-7.726h239.35c4.267 0 7.726 3.459 7.726 7.726s-3.459 7.726-7.726 7.726z" fill="#9dc6fb"/></g><g><path d="m181.073 415.661h-83.252c-4.267 0-7.726-3.459-7.726-7.726s3.459-7.726 7.726-7.726h83.252c4.267 0 7.726 3.459 7.726 7.726s-3.459 7.726-7.726 7.726z" fill="#dd5790"/></g><g><path d="m170.666 463.531h-62.439c-4.267 0-7.726-3.459-7.726-7.726s3.459-7.726 7.726-7.726h62.439c4.267 0 7.726 3.459 7.726 7.726s-3.458 7.726-7.726 7.726z" fill="#dd5790"/></g></g></svg>